PathFileType	4	(X/Y/Z)	/Users/niels/Desktop/University/Third Semester/Perception and Action/Exam/Gymnastics Motion Tracking/Code for Gym Tracking/Analyzed Data/Webcam_Backflip/id3_1_trajectory_Sports2D/id3_1_trajectory_Sports2D_px_person00.trc
DataRate	CameraRate	NumFrames	NumMarkers	Units	OrigDataRate	OrigDataStartFrame	OrigNumFrames
29.8125	29.8125	11	22	m	29.8125	100	160
Frame#	Time	Hip			RHip			RKnee			RAnkle			RBigToe			RSmallToe			RHeel			LHip			LKnee			LAnkle			LBigToe			LSmallToe			LHeel			Neck			Head			Nose			RShoulder			RElbow			RWrist			LShoulder			LElbow			LWrist		
		X1	Y1	Z1	X2	Y2	Z2	X3	Y3	Z3	X4	Y4	Z4	X5	Y5	Z5	X6	Y6	Z6	X7	Y7	Z7	X8	Y8	Z8	X9	Y9	Z9	X10	Y10	Z10	X11	Y11	Z11	X12	Y12	Z12	X13	Y13	Z13	X14	Y14	Z14	X15	Y15	Z15	X16	Y16	Z16	X17	Y17	Z17	X18	Y18	Z18	X19	Y19	Z19	X20	Y20	Z20	X21	Y21	Z21	X22	Y22	Z22
100	3.354297693920335	0.7362241127424586	-0.6117251849144858	0.0	0.7322704507153807	-0.6110389272616156	0.0	0.6995232175705408	-0.7310690043231401	0.0	0.6485833890940628	-0.836194118666825	0.0	0.6737845294023275	-0.874601898737146	0.0	0.6598416710041993	-0.8708285854499964	0.0	0.635754096053486	-0.8506510084403173	0.0	0.7390508113924557	-0.6142715207621355	0.0	0.699962702924187	-0.7307485043234043	0.0	0.6506571719608555	-0.8320311360171021	0.0	0.6915594568522507	-0.8605354540453618	0.0	0.6849813870179122	-0.8580857396526618	0.0	0.6331524186255936	-0.8431369051545791	0.0	0.8262074920565288	-0.48538958524498793	0.0	0.886747606315737	-0.43797554190573623	0.0	0.8744433806819394	-0.4774947847235085	0.0	0.8083163455501792	-0.48519246317856	0.0	0.741907073646104	-0.5184269987856271	0.0	0.784434604281173	-0.5734840931538757	0.0	0.8209027982936838	-0.501016266489597	0.0	0.7807947832444809	-0.5743029167429223	0.0	0.7908850085024691	-0.6537726784309599	0.0
101	3.3878406708595383	0.7287449246460868	-0.625073291933928	0.0	0.7244968591101512	-0.6238810035961341	0.0	0.6922455395565836	-0.7401124788226496	0.0	0.6470224388241248	-0.8464629895199238	0.0	0.6732681202290095	-0.8854884822142086	0.0	0.6584815477654855	-0.8806149939823893	0.0	0.6356501406272352	-0.8614619717907183	0.0	0.7322522663655596	-0.6274473188343576	0.0	0.693183473407718	-0.7399644147138646	0.0	0.6497939682625583	-0.843287026877876	0.0	0.6919814629908185	-0.8697774186768193	0.0	0.68582804965263	-0.8681981994600837	0.0	0.6332997679933076	-0.8543519971126062	0.0	0.8170779258703279	-0.4953590718548068	0.0	0.8762338404860702	-0.4465202242169641	0.0	0.8646542074933798	-0.4860797373535728	0.0	0.7980710743961965	-0.49754411103895474	0.0	0.7303466223905059	-0.5342556840600939	0.0	0.7629020961061339	-0.5942014363446465	0.0	0.8115218648048922	-0.5110202366763621	0.0	0.768945986282278	-0.5800472021567908	0.0	0.7745665886141669	-0.6612999335543633	0.0
102	3.421383647798742	0.7251919143928672	-0.6318617281777855	0.0	0.7206554137250504	-0.6299422968660879	0.0	0.6903470282704032	-0.7428097675184451	0.0	0.6472112127336447	-0.8493912764673384	0.0	0.6741658046774331	-0.8867655794756237	0.0	0.6590346567457838	-0.8818133118744428	0.0	0.6366492447534655	-0.8644748810021198	0.0	0.7292852074039806	-0.6338083765300038	0.0	0.6910280297778629	-0.7425204744193199	0.0	0.6502950804839681	-0.8468255648882531	0.0	0.6926302100016225	-0.8714311829814555	0.0	0.6869142480902115	-0.8701898656424013	0.0	0.6345273914061033	-0.8580369984850044	0.0	0.8106914277632029	-0.4977978863826845	0.0	0.868082393652699	-0.4475069816575164	0.0	0.8573119250453568	-0.4872361024082695	0.0	0.7907699710123172	-0.5018877696630746	0.0	0.7236848669592532	-0.542128917639903	0.0	0.7457961643022548	-0.6066463717623176	0.0	0.8047347914807227	-0.5136887877338073	0.0	0.7615627153199662	-0.5791379154268106	0.0	0.7635725644667074	-0.6613883146525887	0.0
103	3.454926624737945	0.7255377909290628	-0.630925037610651	0.0	0.72068344715878	-0.6282854400827308	0.0	0.693526615591284	-0.7385044130053128	0.0	0.648712688180848	-0.8448484021172071	0.0	0.6757649984164407	-0.8788741460595518	0.0	0.6611151875698129	-0.875170446151435	0.0	0.6381938685328423	-0.8595715447114176	0.0	0.7297634426049501	-0.6322537544042641	0.0	0.6926793045506606	-0.7378675112095205	0.0	0.6515945797369779	-0.8424838035162072	0.0	0.6930654945407391	-0.8661476809782565	0.0	0.6877065642685386	-0.8646453356114805	0.0	0.6362113616089052	-0.8539794970878771	0.0	0.8071011062557761	-0.49217157126355343	0.0	0.8626949923004186	-0.44073095165878295	0.0	0.8526351837571579	-0.4806386170491288	0.0	0.7865488815237573	-0.49767266371079993	0.0	0.7211201343528529	-0.5409218069931364	0.0	0.7337079934786398	-0.6093252272044986	0.0	0.8006552483234024	-0.5084589418880697	0.0	0.7585477611184739	-0.5717147830114049	0.0	0.7582179651228981	-0.654174750902516	0.0
104	3.4884696016771484	0.729302488903899	-0.6221166134944274	0.0	0.7240798182353408	-0.6190388268442034	0.0	0.7015630596743303	-0.7275904981587126	0.0	0.6515007004100841	-0.8330911683196366	0.0	0.6781061123183099	-0.8641145697503769	0.0	0.6645750463292249	-0.8621844581370512	0.0	0.640243640404756	-0.8471021776887031	0.0	0.7330685895792215	-0.6228149834025003	0.0	0.6976497451560546	-0.7265628022030017	0.0	0.6536684819331939	-0.8308405551622702	0.0	0.6934092931122053	-0.8552292892171508	0.0	0.6883334794434851	-0.8528939948538783	0.0	0.6382623810419137	-0.842531145172055	0.0	0.8061383470421337	-0.47917593244304435	0.0	0.86029584088599	-0.4272045810826666	0.0	0.8506567897004671	-0.46719823151305784	0.0	0.7852004206548072	-0.48565945403794536	0.0	0.721696268241696	-0.5309719131418934	0.0	0.7271185119173842	-0.6022585926633548	0.0	0.7990585066798328	-0.49589514538269464	0.0	0.7592781396611012	-0.5586938793060593	0.0	0.7580698393452467	-0.6405472560583659	0.0
105	3.522012578616352	0.7356816134998789	-0.6063721599051836	0.0	0.7300377757032234	-0.6032609428590979	0.0	0.7140387218638496	-0.7113676552457088	0.0	0.6558684824765703	-0.814952975583773	0.0	0.681740035686909	-0.8451234918472841	0.0	0.669414612711537	-0.8444555885547805	0.0	0.6432158579957498	-0.8279929816525311	0.0	0.7385818233328758	-0.6065967368045588	0.0	0.7058463018934225	-0.709975917322273	0.0	0.6569298934261645	-0.8130459195317452	0.0	0.6942250876208288	-0.8399516996551358	0.0	0.6894108566061193	-0.8363718640166135	0.0	0.6410546295352187	-0.8246889353980326	0.0	0.8074432634086026	-0.46049717660687783	0.0	0.8608397388062972	-0.4087165146778745	0.0	0.8512044589736582	-0.4487365427882251	0.0	0.7863207006059976	-0.46756895939439275	0.0	0.7245581248048959	-0.5138638015488971	0.0	0.7260998735962743	-0.5869165651935978	0.0	0.7996066391742144	-0.4775177870255983	0.0	0.7628633822521749	-0.5414815534753162	0.0	0.7620892570032695	-0.6218800650837295	0.0
106	3.555555555555555	0.7437408179766342	-0.5854995622004818	0.0	0.7376207426373896	-0.5826691519933013	0.0	0.7299941151305219	-0.6915829047027839	0.0	0.6622879761251635	-0.7920382686887542	0.0	0.6873560224046719	-0.8238955716562416	0.0	0.6758941665247828	-0.8235888658573256	0.0	0.647830081274972	-0.8038802683098888	0.0	0.7457230514647525	-0.585474297946792	0.0	0.7173718601232477	-0.6898614939792754	0.0	0.6620624722388849	-0.790807262193664	0.0	0.6963349554429014	-0.8215974477146355	0.0	0.6918107770296061	-0.8166709089319998	0.0	0.6453649057041952	-0.8021451685460033	0.0	0.8105308002616202	-0.43838153047362355	0.0	0.8639819909490611	-0.3873140941712983	0.0	0.8539176463378803	-0.42743453072403115	0.0	0.7894503161879337	-0.4456364501621214	0.0	0.7291098892885443	-0.49193899865568874	0.0	0.7301569916397929	-0.5657546271576885	0.0	0.8019904297412215	-0.4554251219222439	0.0	0.7683617685324544	-0.5215290219719475	0.0	0.7689622058468127	-0.5997863514751174	0.0
107	3.5890985324947584	0.7525886589791859	-0.5618006697540633	0.0	0.7460009684027092	-0.5593634169596957	0.0	0.7478638072826165	-0.6700306127320321	0.0	0.6713340837954102	-0.7668022307792222	0.0	0.6958669067008996	-0.8019238162280257	0.0	0.6848020174147671	-0.8013038578614989	0.0	0.6549898436107462	-0.7773040078960314	0.0	0.7538609631512895	-0.5616950002323163	0.0	0.732005562791375	-0.6680800474789709	0.0	0.6697588144760572	-0.766379310740943	0.0	0.7008314870067	-0.8015425718612395	0.0	0.696558963859891	-0.7955137040880127	0.0	0.652141826599309	-0.777217575627387	0.0	0.8149222767406858	-0.4151290651943852	0.0	0.8691231649938426	-0.3649562203036697	0.0	0.8583294860892595	-0.4053486911436255	0.0	0.7941789389491043	-0.4221603423004955	0.0	0.7350608531027647	-0.4677977307591514	0.0	0.7382689496692179	-0.5416477174325021	0.0	0.8059242779688771	-0.43183148590330833	0.0	0.7749049746124064	-0.5001772224144946	0.0	0.7774997250448029	-0.5760370065332026	0.0
108	3.622641509433962	0.761488290252972	-0.5376469285149462	0.0	0.7546368311392071	-0.5354895642253431	0.0	0.7658805755018187	-0.6483574054123391	0.0	0.6836625057942943	-0.7422546765759837	0.0	0.7085750425322498	-0.7804994443659253	0.0	0.6975180966803933	-0.779417233367865	0.0	0.6657242878625312	-0.7515955597736752	0.0	0.7623162046930299	-0.5374556828300896	0.0	0.7487193133671447	-0.6463839272783488	0.0	0.6804620062699445	-0.7422830117341759	0.0	0.7090770328195578	-0.7811219728922318	0.0	0.7047841790487269	-0.774468762175216	0.0	0.6621831124032317	-0.7525604309372307	0.0	0.8202706876574059	-0.3926532265305443	0.0	0.875524461903466	-0.3432976003401204	0.0	0.8639911346818848	-0.38412418206011856	0.0	0.8001722387283825	-0.3991572036663142	0.0	0.7423506711007575	-0.4439011214126692	0.0	0.7491278691828431	-0.5174099951965546	0.0	0.8111160962885843	-0.4086984212903395	0.0	0.7818544981926718	-0.4788268463208871	0.0	0.7869118933400656	-0.5525284848368025	0.0
109	3.656184486373165	0.769938355538819	-0.5150894657855765	0.0	0.7632765323502625	-0.5129193802450431	0.0	0.7826114250713735	-0.6279485425146173	0.0	0.6998945705932372	-0.7211997074708981	0.0	0.7267686962324623	-0.7607461055109512	0.0	0.7154973298552485	-0.7595941026076084	0.0	0.6809749875060305	-0.730075027265638	0.0	0.7705160174399738	-0.5146040333629456	0.0	0.7658420935285281	-0.6262107966525975	0.0	0.6943584619954531	-0.7208428534736956	0.0	0.7223807953434138	-0.761523686011542	0.0	0.7175236721506031	-0.7547910708355685	0.0	0.6760000611279857	-0.7307414424529145	0.0	0.8263505509377919	-0.3722615509709627	0.0	0.8825166289871197	-0.3235466427670702	0.0	0.8705286065115463	-0.3649062575424808	0.0	0.8071523881111544	-0.3781642008922489	0.0	0.7510080591696078	-0.4222574626047269	0.0	0.7615141275974666	-0.4954081250856441	0.0	0.8172556714826199	-0.38750507044214905	0.0	0.7888399654616678	-0.4588745570507816	0.0	0.7967611943181776	-0.5309760366625378	0.0
110	3.6897274633123684	0.7776968915161523	-0.4955980436930553	0.0	0.7718535637423101	-0.49308367652486634	0.0	0.7972157219645688	-0.6098759391558923	0.0	0.7202379703774742	-0.7054175236157569	0.0	0.750840069290889	-0.7435276788531553	0.0	0.7393369579552952	-0.7429718183530304	0.0	0.7011160123834518	-0.714854211375541	0.0	0.778149606524009	-0.49453235960576103	0.0	0.7818375000306977	-0.6086039076138989	0.0	0.7115576791169786	-0.7038052693696344	0.0	0.7415388687428116	-0.7437179449032368	0.0	0.7354916106888679	-0.7373947036222583	0.0	0.6938444329612475	-0.7137526207294633	0.0	0.8329477577399279	-0.3546889229538473	0.0	0.8896808954194707	-0.30647529445825505	0.0	0.8776090724332654	-0.34840157440978886	0.0	0.8148538326647081	-0.3601571372823934	0.0	0.7610055480086815	-0.4042290001518992	0.0	0.7746181690739818	-0.4772874896350084	0.0	0.8240012133651747	-0.369134189291539	0.0	0.7956065520356057	-0.4413328764143116	0.0	0.8067211800098981	-0.5124898016482992	0.0
